<?xml version="1.0" encoding="UTF-8"?>
<svg id="Calque_1" data-name="Calque 1" xmlns="http://www.w3.org/2000/svg" viewBox="0 0 1256.17 359.5">
  <defs>
    <style>
      .cls-1 {
        fill: #fff;
      }

      .cls-2 {
        isolation: isolate;
      }

      .cls-3 {
        fill: #4572ef;
      }
    </style>
  </defs>
  <g id="Texte_04_bold_" data-name="Texte_04 (bold)">
    <g class="cls-2">
      <g class="cls-2">
        <path class="cls-3" d="M360.53,230.45c0,19.94-12.45,31.55-34.09,31.55h-15.11v23.45h-22.12v-84.73h37.23c21.64,0,34.09,10.88,34.09,29.73ZM339.5,231.18c0-8.34-5.2-12.81-14.14-12.81h-14.02v25.99h14.02c8.94,0,14.14-4.59,14.14-13.18Z"/>
        <path class="cls-3" d="M433.17,258.49h-45.45c2.06,7.37,7.49,11.48,14.87,11.48,5.56,0,11-2.3,15.35-6.65l11.24,11.24c-6.65,7.49-16.44,11.6-28.53,11.6-21.39,0-34.57-13.18-34.57-33.12s13.66-33.72,34.09-33.72c22.84,0,34.45,15.35,33,39.16ZM412.38,247.01c0-7.49-4.84-12.57-12.09-12.57s-11.6,5.08-13.05,12.57h25.14Z"/>
        <path class="cls-3" d="M511.13,244.23v41.22h-21.39v-35.05c0-7.37-4.35-11.97-11.12-11.97-7.25.12-11.97,5.08-12.81,12.45v34.57h-21.52v-65.39h21.52v10.64c4.59-7.49,12.09-11.48,21.64-11.48,14.26,0,23.69,9.67,23.69,25.02Z"/>
        <path class="cls-3" d="M592.59,244.23v41.22h-21.39v-35.05c0-7.37-4.35-11.97-11.12-11.97-7.25.12-11.97,5.08-12.81,12.45v34.57h-21.52v-65.39h21.52v10.64c4.59-7.49,12.09-11.48,21.64-11.48,14.26,0,23.69,9.67,23.69,25.02Z"/>
        <path class="cls-3" d="M673.33,252.69c0,20.19-14.26,33.48-35.78,33.48s-35.66-13.3-35.66-33.48,14.14-33.36,35.66-33.36,35.78,13.3,35.78,33.36ZM623.53,252.93c0,9.79,5.68,16.32,14.02,16.32s14.14-6.53,14.14-16.32-5.68-16.2-14.14-16.2-14.02,6.53-14.02,16.2Z"/>
        <path class="cls-3" d="M705.71,220.06v65.39h-21.4v-65.39h21.4Z"/>
        <path class="cls-3" d="M744.99,234.08c-3.63,0-6.16,1.33-6.16,4.11,0,8.58,34.33,4.47,34.21,27.2,0,13.42-11.72,21.03-27.68,21.03-11,0-21.51-3.14-29.49-9.31l6.77-13.9c7.49,5.2,15.95,8.1,23.21,8.1,3.99,0,6.89-1.33,6.89-3.99,0-8.94-33.72-4.47-33.72-27.08,0-13.66,11.48-21.15,26.83-21.15,9.43,0,18.98,2.66,27.2,7.62l-7.25,14.02c-8.1-4.23-15.47-6.65-20.79-6.65Z"/>
      </g>
    </g>
  </g>
  <g id="RN_-_copie" data-name="RN - copie">
    <g>
      <path class="cls-3" d="M295.35,307.73c-31.56,28.67-72.81,44.55-115.71,44.55-95.29,0-172.43-77.34-172.43-172.43C7.43,84.56,84.56,7.43,179.65,7.43c40.84,0,80.23,14.44,111.38,40.84h10.93C268.75,17.12,225.02,0,179.65,0,80.44.21,0,80.65,0,179.85s80.44,179.65,179.65,179.65c49.09,0,93.64-19.8,126.02-51.98h-10.52l.21.21Z"/>
      <path class="cls-3" d="M419.61,140.87v-7.63h-19.8c-10.73,0-16.29,3.3-16.29,10.31s5.78,11.55,14.64,11.55c10.73,0,18.98-5.36,21.45-14.23M419.81,153.25c-5.16,7.01-13.2,10.31-23.51,10.31-13.2,0-21.66-8.46-21.66-19.59s8.87-18.15,23.93-18.36h21.04v-3.71c0-9.28-5.78-14.85-17.12-14.85-7.01,0-13.61,2.68-20.21,7.22l-3.92-7.01c7.43-5.57,16.71-8.66,25.99-8.66,15.88,0,24.54,8.46,24.75,22.07v42.28h-9.08v-9.9l-.21.21ZM487.67,104.57l-3.71,7.43c-4.95-3.09-11.34-5.16-17.33-5.16-7.22,0-12.58,2.48-12.58,8.46,0,14.23,35.68,7.01,35.68,29.91,0,12.58-11.14,18.15-23.51,18.15-9.08,0-18.36-3.09-24.54-8.87l3.71-7.22c5.78,5.16,13.41,8.04,21.24,8.04s13.61-2.68,13.82-9.08c.41-15.47-35.48-7.43-35.27-30.11,0-12.38,10.73-17.33,22.28-17.33,7.63,0,15.06,2.27,20.42,5.78M542.53,104.57l-3.71,7.43c-4.95-3.09-11.34-5.16-17.33-5.16-7.22,0-12.58,2.48-12.58,8.46,0,14.23,35.68,7.01,35.68,29.91,0,12.58-11.14,18.15-23.51,18.15-9.08,0-18.56-3.09-24.54-8.87l3.71-7.22c5.78,5.16,13.41,8.04,21.24,8.04,7.43,0,13.61-2.68,13.61-9.08.41-15.47-35.48-7.43-35.27-30.11,0-12.38,10.52-17.33,22.28-17.33,7.63,0,15.06,2.27,20.42,5.78M606.68,127.05c-.62-12.17-8.87-20.01-21.45-20.01-11.55-.41-21.45,8.46-22.28,20.01h43.73ZM615.34,134.68h-52.18c1.03,11.96,11.14,20.83,23.1,20.42,7.84,0,14.85-2.68,19.8-8.04l5.16,5.57c-6.6,7.01-16.09,10.93-25.78,10.73-18.77,0-31.76-13.2-31.76-32.18s13.2-32.38,31.56-32.38c20.63,0,30.94,14.23,29.91,35.89M737.24,123.55v39.6h-9.49v-36.92c0-11.34-6.6-17.94-17.74-17.94-13.2.41-20.83,9.9-20.83,23.51v31.35h-9.69v-36.92c0-11.34-6.6-17.94-17.74-17.94-13.2.41-21.04,9.9-21.04,23.51v31.35h-9.28v-63.94h9.28v14.44c4.13-9.9,12.79-14.64,24.34-14.85,11.96,0,20.21,6.19,22.89,16.71,3.92-11.34,12.99-16.5,25.16-16.71,15.06,0,23.72,9.49,23.72,24.96M814.17,130.97c0-13.82-9.49-23.93-22.89-23.93s-22.89,9.9-22.89,23.72,9.49,23.72,22.89,23.72,22.89-9.9,22.89-23.72M823.66,131.18c0,18.98-12.38,32.18-30.32,32.18-11.34,0-20.21-5.16-24.96-14.03v13.61h-9.49v-89.93h9.49v39.81c4.74-9.08,14.23-14.64,24.54-14.23,18.15,0,30.73,13.41,30.73,32.59M840.98,73.01h9.49v89.93h-9.49v-89.93ZM920.8,127.05c-.62-12.17-8.87-20.01-21.45-20.01-11.55-.41-21.45,8.46-22.28,20.01h43.73ZM929.26,134.68h-52.18c1.03,11.96,11.34,20.83,23.31,20.42,7.84,0,14.85-2.68,19.8-8.04l5.16,5.57c-6.6,7.01-16.09,10.93-25.78,10.73-18.77,0-31.76-13.2-31.76-32.18s13.2-32.38,31.56-32.38c20.63,0,30.94,14.23,29.91,35.89M1051.16,123.55v39.6h-9.49v-36.92c0-11.34-6.6-17.94-17.74-17.94-13.2.41-20.83,9.9-20.83,23.51v31.35h-9.49v-36.92c0-11.34-6.6-17.94-17.74-17.94-13.2.41-21.04,9.9-21.04,23.51v31.35h-9.49v-63.94h9.49v14.44c4.13-9.9,12.79-14.64,24.34-14.85,11.96,0,20.21,6.19,22.89,16.71,3.92-11.34,12.99-16.5,25.16-16.71,14.85,0,23.72,9.49,23.72,24.96M1118.81,127.05c-.62-12.17-8.87-20.01-21.24-20.01-11.55-.41-21.45,8.46-22.28,20.01h43.73-.21ZM1127.26,134.68h-52.18c1.03,11.96,11.34,20.83,23.31,20.42,7.84,0,14.85-2.68,19.8-8.04l5.16,5.57c-6.6,7.01-16.09,10.93-25.78,10.73-18.77,0-31.76-13.2-31.76-32.18s13.2-32.38,31.56-32.38c20.63,0,30.94,14.23,29.91,35.89M1202.13,123.55v39.6h-9.49v-36.92c0-11.34-6.81-17.94-18.15-17.94-12.58,0-20.42,8.46-21.45,20.42v34.44h-9.49v-63.94h9.49v14.03c4.54-9.69,13.2-14.23,24.75-14.44,15.26,0,24.34,9.49,24.34,24.96M1256.17,158.82c-4.33,2.89-9.28,4.54-14.44,4.74-9.49,0-16.29-5.57-16.29-18.15v-36.51h-9.28v-7.63h9.28v-16.91h9.49v16.91h20.21v7.63h-20.21v34.86c0,7.63,2.89,10.73,8.46,10.73,3.3,0,6.6-1.03,10.11-3.3l2.68,7.63Z"/>
    </g>
  </g>
  <g id="Texte_04_bold_-2" data-name="Texte_04 (bold)">
    <g class="cls-2">
      <g class="cls-2">
        <path class="cls-3" d="M340.1,163.38l-12.33-23.45h-16.44v23.45h-22.12v-84.73h38.07c22.48,0,35.29,10.88,35.29,29.73,0,12.81-5.32,22.24-15.11,27.32l17.65,27.68h-25.02ZM311.34,122.28h16.08c8.94,0,14.14-4.59,14.14-13.18s-5.2-12.81-14.14-12.81h-16.08v25.99Z"/>
      </g>
    </g>
  </g>
  <path class="cls-3" d="M706.11,201.3c0,6.6-4.54,11.14-11.14,11.14s-10.93-4.74-10.93-11.14,4.54-11.14,10.93-11.14,11.14,4.74,11.14,11.14"/>
  <path class="cls-3" d="M268.93,77.85H58c-3.08,0-5.58,2.5-5.58,5.58v109.32s2.05,78.26,107.35,124.39c2.35,1.03,5.04,1.03,7.38,0,105.3-46.13,107.35-124.39,107.35-124.39v-109.32c0-3.08-2.5-5.58-5.58-5.58ZM269.5,192.98s-1.96,74.73-102.51,118.78c-2.24.98-4.81.98-7.05,0-100.55-44.05-102.51-118.78-102.51-118.78v-104.39c0-2.94,2.39-5.33,5.33-5.33h201.42c2.94,0,5.33,2.39,5.33,5.33v104.39Z"/>
  <path class="cls-3" d="M163.46,89.03h-95.64c-2.79,0-5.06,2.27-5.06,5.06v99.14s1.86,70.97,97.35,112.81c2.13.93,4.57.93,6.7,0,95.49-41.83,97.35-112.81,97.35-112.81v-99.14c0-2.79-2.27-5.06-5.06-5.06h-95.64Z"/>
  <g>
    <path class="cls-3" d="M114.91,92.91h-43.68c-2.69,0-4.88,2.18-4.88,4.88v43.68h48.55v-48.55Z"/>
    <rect class="cls-1" x="114.91" y="92.91" width="48.55" height="48.55"/>
    <rect class="cls-3" x="163.46" y="92.91" width="48.56" height="48.55"/>
    <path class="cls-1" d="M255.7,92.91c2.69,0,4.88,2.18,4.88,4.88"/>
    <path class="cls-1" d="M255.7,92.91h-43.68v48.55h48.55v-43.68c0-2.69-2.18-4.88-4.88-4.88Z"/>
    <rect class="cls-3" x="212.02" y="141.46" width="48.55" height="48.55"/>
    <rect class="cls-1" x="163.46" y="141.46" width="48.56" height="48.55"/>
    <rect class="cls-3" x="114.91" y="141.46" width="48.55" height="48.55"/>
    <rect class="cls-1" x="66.35" y="141.46" width="48.55" height="48.55"/>
    <path class="cls-3" d="M114.91,238.57v-48.55h-48.55v3.37s.54,20.24,15.82,45.18h32.73Z"/>
    <rect class="cls-1" x="114.91" y="190.02" width="48.55" height="48.55"/>
    <rect class="cls-3" x="163.46" y="190.02" width="48.56" height="48.55"/>
    <path class="cls-1" d="M212.02,238.57h32.73c15.29-24.95,15.82-45.18,15.82-45.18v-3.37h-48.55v48.55Z"/>
    <path class="cls-3" d="M244.75,238.57h-32.73v36.63c15.14-12.18,25.56-24.92,32.73-36.63Z"/>
    <path class="cls-1" d="M163.46,302.85c1.1,0,2.2-.22,3.23-.67,18.52-8.12,33.39-17.37,45.33-26.97v-36.63h-48.56v64.27Z"/>
    <path class="cls-3" d="M114.91,238.57v36.63c11.94,9.6,26.8,18.86,45.33,26.97,1.03.45,2.13.67,3.23.67v-64.27h-48.55Z"/>
    <path class="cls-1" d="M82.18,238.57c7.17,11.71,17.59,24.45,32.73,36.63v-36.63h-32.73Z"/>
  </g>
</svg>